<svg xmlns="http://www.w3.org/2000/svg" viewBox="0 0 497.49 498"><defs><style>.cls-1{fill:#277473;}</style></defs><g id="Layer_2" data-name="Layer 2"><g id="Layer_1-2" data-name="Layer 1"><path class="cls-1" d="M41.8,181.08H82.08v23H65.43v55.33H82.08v22.66H65.43v74.12H41.8Z"/><path class="cls-1" d="M89.92,181.08h23.63V332.86H127.3v23.31H89.92Z"/><path class="cls-1" d="M152.12,179.68h25.67l18.48,176.49H172.42l-1.16-31.47H158.05l-2.35,31.47H132.25Zm13.26,29h-1.94q-1.08,36.75-1.62,47l-2.48,46.09h10.33l-1.8-35.56Z"/><path class="cls-1" d="M188.86,181.08H213l8.54,101.08,7-101.08h24.06L231.44,357.57H211.85Z"/><path class="cls-1" d="M252.45,270.88q0-50.7,10.85-73.58,8.38-17.62,20.84-17.62a18.53,18.53,0,0,1,11.39,4.3q5.58,4.29,10.31,15.41t7.2,29.76a304.41,304.41,0,0,1,2.47,39.8q0,53.49-13,75.62-7.63,13-17.94,13-14.51,0-22.45-20.63Q252.45,311.49,252.45,270.88Zm31.69-64.24A38.42,38.42,0,0,0,280,217q-1.4,5.64-2,20.25-1,23-1,36.2,0,29.76,2.37,42.86A50.73,50.73,0,0,0,284.14,331a52.74,52.74,0,0,0,4.4-12q1.29-5.74,1.72-20.25Q291,272,291,259.6q0-27.6-2.25-39.53A43.53,43.53,0,0,0,284.14,206.64Z"/><path class="cls-1" d="M325.39,181.08h12.68q22.23,0,34.64,12.78t12.41,35.77a51,51,0,0,1-5.05,23.1A45.07,45.07,0,0,1,369,266.48a48.82,48.82,0,0,1,8.06,11.38q5.37,11.38,8.54,29.22T391,356.17H367.18q-1.51-39.09-7.09-57.36-4.2-13.76-11.07-19.34v76.7H325.39ZM351,206.32V256.7q5.69-2.46,9-9.16a36.24,36.24,0,0,0,3.27-16q0-9.75-3.22-16.24A17.88,17.88,0,0,0,351,206.32Z"/><path class="cls-1" d="M415.09,179.68h25.67l18.48,176.49H435.39l-1.16-31.47H421l-2.35,31.47H395.21Zm13.26,29h-1.94q-1.08,36.75-1.62,47l-2.49,46.09h10.34l-1.8-35.56Z"/><path class="cls-1" d="M241.28,40C131.11,40,41.8,98.92,41.8,171.59h399C440.76,98.92,351.45,40,241.28,40Z"/><rect class="cls-1" y="367.49" width="497.49" height="16.51" rx="8.25"/><path class="cls-1" d="M433.8,437a157.13,157.13,0,0,1-28-9c-16.31-7.36-25.61-22.22-31-34h-67s22.89,23-29.06,11c-40.83-9.43-38.44-10.83-35.55-11H147.8s18,31,71,43,122.67-7.33,145,17c5.64,6.14,13.76,11.32,21,18s52,26,52,26Z"/><circle class="cls-1" cx="248.74" cy="23.75" r="23.75"/></g></g></svg>