<svg id="visual" viewBox="0 0 900 300" width="900" height="300" xmlns="http://www.w3.org/2000/svg" xmlns:xlink="http://www.w3.org/1999/xlink" version="1.1"><rect x="0" y="0" width="900" height="300" fill="#E6E6E6"></rect><path d="M0 38L21.5 45.8C43 53.7 86 69.3 128.8 74.8C171.7 80.3 214.3 75.7 257.2 76.3C300 77 343 83 385.8 78.2C428.7 73.3 471.3 57.7 514.2 57.5C557 57.3 600 72.7 642.8 76C685.7 79.3 728.3 70.7 771.2 65C814 59.3 857 56.7 878.5 55.3L900 54L900 301L878.5 301C857 301 814 301 771.2 301C728.3 301 685.7 301 642.8 301C600 301 557 301 514.2 301C471.3 301 428.7 301 385.8 301C343 301 300 301 257.2 301C214.3 301 171.7 301 128.8 301C86 301 43 301 21.5 301L0 301Z" fill="#ffab87"></path><path d="M0 83L21.5 88.8C43 94.7 86 106.3 128.8 108.3C171.7 110.3 214.3 102.7 257.2 101.3C300 100 343 105 385.8 102.7C428.7 100.3 471.3 90.7 514.2 89.7C557 88.7 600 96.3 642.8 96C685.7 95.7 728.3 87.3 771.2 90.7C814 94 857 109 878.5 116.5L900 124L900 301L878.5 301C857 301 814 301 771.2 301C728.3 301 685.7 301 642.8 301C600 301 557 301 514.2 301C471.3 301 428.7 301 385.8 301C343 301 300 301 257.2 301C214.3 301 171.7 301 128.8 301C86 301 43 301 21.5 301L0 301Z" fill="#ff986c"></path><path d="M0 167L21.5 166.3C43 165.7 86 164.3 128.8 158C171.7 151.7 214.3 140.3 257.2 136.3C300 132.3 343 135.7 385.8 143.8C428.7 152 471.3 165 514.2 169C557 173 600 168 642.8 165.3C685.7 162.7 728.3 162.3 771.2 162.3C814 162.3 857 162.7 878.5 162.8L900 163L900 301L878.5 301C857 301 814 301 771.2 301C728.3 301 685.7 301 642.8 301C600 301 557 301 514.2 301C471.3 301 428.7 301 385.8 301C343 301 300 301 257.2 301C214.3 301 171.7 301 128.8 301C86 301 43 301 21.5 301L0 301Z" fill="#ff8552"></path><path d="M0 202L21.5 203.7C43 205.3 86 208.7 128.8 209.3C171.7 210 214.3 208 257.2 207.3C300 206.7 343 207.3 385.8 209.5C428.7 211.7 471.3 215.3 514.2 213.3C557 211.3 600 203.7 642.8 200.8C685.7 198 728.3 200 771.2 202.5C814 205 857 208 878.5 209.5L900 211L900 301L878.5 301C857 301 814 301 771.2 301C728.3 301 685.7 301 642.8 301C600 301 557 301 514.2 301C471.3 301 428.7 301 385.8 301C343 301 300 301 257.2 301C214.3 301 171.7 301 128.8 301C86 301 43 301 21.5 301L0 301Z" fill="#e17244"></path><path d="M0 240L21.5 239.8C43 239.7 86 239.3 128.8 240C171.7 240.7 214.3 242.3 257.2 246.3C300 250.3 343 256.7 385.8 257.3C428.7 258 471.3 253 514.2 250.5C557 248 600 248 642.8 245.5C685.7 243 728.3 238 771.2 240.8C814 243.7 857 254.3 878.5 259.7L900 265L900 301L878.5 301C857 301 814 301 771.2 301C728.3 301 685.7 301 642.8 301C600 301 557 301 514.2 301C471.3 301 428.7 301 385.8 301C343 301 300 301 257.2 301C214.3 301 171.7 301 128.8 301C86 301 43 301 21.5 301L0 301Z" fill="#c35f36"></path></svg>